<mxfile host="app.diagrams.net" modified="2024-01-08T17:56:45.497Z" agent="Mozilla/5.0 (Windows NT 10.0; Win64; x64) AppleWebKit/537.36 (KHTML, like Gecko) Chrome/120.0.0.0 Safari/537.36" etag="_yh5iJViMehY48UPFx-T" version="22.1.17" type="device">
  <diagram id="C5RBs43oDa-KdzZeNtuy" name="Page-1">
    <mxGraphModel dx="1050" dy="557" grid="1" gridSize="10" guides="1" tooltips="1" connect="1" arrows="1" fold="1" page="1" pageScale="1" pageWidth="827" pageHeight="1169" math="0" shadow="0">
      <root>
        <mxCell id="WIyWlLk6GJQsqaUBKTNV-0" />
        <mxCell id="WIyWlLk6GJQsqaUBKTNV-1" parent="WIyWlLk6GJQsqaUBKTNV-0" />
        <mxCell id="GkkqIMfojNl4VJ_hUagD-0" value="List" style="swimlane;fontStyle=0;childLayout=stackLayout;horizontal=1;startSize=30;horizontalStack=0;resizeParent=1;resizeParentMax=0;resizeLast=0;collapsible=1;marginBottom=0;whiteSpace=wrap;html=1;" vertex="1" parent="WIyWlLk6GJQsqaUBKTNV-1">
          <mxGeometry x="100" y="270" width="140" height="120" as="geometry" />
        </mxCell>
        <mxCell id="GkkqIMfojNl4VJ_hUagD-1" value="Item 1" style="text;strokeColor=none;fillColor=none;align=left;verticalAlign=middle;spacingLeft=4;spacingRight=4;overflow=hidden;points=[[0,0.5],[1,0.5]];portConstraint=eastwest;rotatable=0;whiteSpace=wrap;html=1;" vertex="1" parent="GkkqIMfojNl4VJ_hUagD-0">
          <mxGeometry y="30" width="140" height="30" as="geometry" />
        </mxCell>
        <mxCell id="GkkqIMfojNl4VJ_hUagD-2" value="Item 2" style="text;strokeColor=none;fillColor=none;align=left;verticalAlign=middle;spacingLeft=4;spacingRight=4;overflow=hidden;points=[[0,0.5],[1,0.5]];portConstraint=eastwest;rotatable=0;whiteSpace=wrap;html=1;" vertex="1" parent="GkkqIMfojNl4VJ_hUagD-0">
          <mxGeometry y="60" width="140" height="30" as="geometry" />
        </mxCell>
        <mxCell id="GkkqIMfojNl4VJ_hUagD-3" value="Item 3" style="text;strokeColor=none;fillColor=none;align=left;verticalAlign=middle;spacingLeft=4;spacingRight=4;overflow=hidden;points=[[0,0.5],[1,0.5]];portConstraint=eastwest;rotatable=0;whiteSpace=wrap;html=1;" vertex="1" parent="GkkqIMfojNl4VJ_hUagD-0">
          <mxGeometry y="90" width="140" height="30" as="geometry" />
        </mxCell>
        <mxCell id="GkkqIMfojNl4VJ_hUagD-4" value="SONG&amp;nbsp;" style="rounded=0;whiteSpace=wrap;html=1;" vertex="1" parent="WIyWlLk6GJQsqaUBKTNV-1">
          <mxGeometry x="314" y="30" width="120" height="40" as="geometry" />
        </mxCell>
        <mxCell id="GkkqIMfojNl4VJ_hUagD-5" value="Tiene" style="rhombus;whiteSpace=wrap;html=1;" vertex="1" parent="WIyWlLk6GJQsqaUBKTNV-1">
          <mxGeometry x="550" y="30" width="80" height="40" as="geometry" />
        </mxCell>
        <mxCell id="GkkqIMfojNl4VJ_hUagD-6" value="ALBUM" style="rounded=0;whiteSpace=wrap;html=1;" vertex="1" parent="WIyWlLk6GJQsqaUBKTNV-1">
          <mxGeometry x="314" y="260" width="120" height="40" as="geometry" />
        </mxCell>
        <mxCell id="GkkqIMfojNl4VJ_hUagD-7" value="ARTIST" style="rounded=0;whiteSpace=wrap;html=1;" vertex="1" parent="WIyWlLk6GJQsqaUBKTNV-1">
          <mxGeometry x="530" y="140" width="120" height="40" as="geometry" />
        </mxCell>
        <mxCell id="GkkqIMfojNl4VJ_hUagD-8" value="Tiene" style="rhombus;whiteSpace=wrap;html=1;" vertex="1" parent="WIyWlLk6GJQsqaUBKTNV-1">
          <mxGeometry x="540" y="240" width="80" height="40" as="geometry" />
        </mxCell>
        <mxCell id="GkkqIMfojNl4VJ_hUagD-9" value="Tiene" style="rhombus;whiteSpace=wrap;html=1;" vertex="1" parent="WIyWlLk6GJQsqaUBKTNV-1">
          <mxGeometry x="334" y="140" width="80" height="40" as="geometry" />
        </mxCell>
        <mxCell id="GkkqIMfojNl4VJ_hUagD-10" value="" style="endArrow=none;html=1;rounded=0;entryX=0.5;entryY=1;entryDx=0;entryDy=0;exitX=0.5;exitY=0;exitDx=0;exitDy=0;" edge="1" parent="WIyWlLk6GJQsqaUBKTNV-1" source="GkkqIMfojNl4VJ_hUagD-9" target="GkkqIMfojNl4VJ_hUagD-4">
          <mxGeometry width="50" height="50" relative="1" as="geometry">
            <mxPoint x="380" y="310" as="sourcePoint" />
            <mxPoint x="430" y="260" as="targetPoint" />
          </mxGeometry>
        </mxCell>
      </root>
    </mxGraphModel>
  </diagram>
</mxfile>
